<?xml version="1.0" encoding="utf-8"?>
<!-- Generator: Adobe Illustrator 25.3.1, SVG Export Plug-In . SVG Version: 6.00 Build 0)  -->
<svg version="1.1" id="Outline" xmlns="http://www.w3.org/2000/svg" xmlns:xlink="http://www.w3.org/1999/xlink" x="0px" y="0px"
	 viewBox="0 0 48 48" enable-background="new 0 0 48 48" xml:space="preserve">
<path d="M33.75,24c0-0.41406-0.33594-0.75-0.75-0.75h-2.25V16c0-3.72217-3.02832-6.75-6.75-6.75s-6.75,3.02783-6.75,6.75v7.25H15
	c-0.41406,0-0.75,0.33594-0.75,0.75c0,5.1228,3.97418,9.3266,9,9.71204V37.25H20c-0.41406,0-0.75,0.33594-0.75,0.75
	s0.33594,0.75,0.75,0.75h8c0.41406,0,0.75-0.33594,0.75-0.75s-0.33594-0.75-0.75-0.75h-3.25v-3.53796
	C29.77582,33.3266,33.75,29.1228,33.75,24z M24,10.75c2.63776,0,4.80634,1.96216,5.17413,4.5H27c-0.41406,0-0.75,0.33594-0.75,0.75
	s0.33594,0.75,0.75,0.75h2.25v2.5H27c-0.41406,0-0.75,0.33594-0.75,0.75s0.33594,0.75,0.75,0.75h2.25v2.5H27
	c-0.41406,0-0.75,0.33594-0.75,0.75s0.33594,0.75,0.75,0.75h2.17413c-0.36786,2.53748-2.53644,4.5-5.17413,4.5
	s-4.80627-1.96252-5.17413-4.5H21c0.41406,0,0.75-0.33594,0.75-0.75s-0.33594-0.75-0.75-0.75h-2.25v-2.5H21
	c0.41406,0,0.75-0.33594,0.75-0.75s-0.33594-0.75-0.75-0.75h-2.25v-2.5H21c0.41406,0,0.75-0.33594,0.75-0.75
	s-0.33594-0.75-0.75-0.75h-2.17413C19.19366,12.71216,21.36224,10.75,24,10.75z M15.78418,24.75h1.51007
	c0.37469,3.36969,3.23779,6,6.70575,6s6.33105-2.63031,6.70575-6h1.51007c-0.37988,4.19922-3.91895,7.5-8.21582,7.5
	S16.16406,28.94922,15.78418,24.75z"/>
</svg>
