<svg xmlns="http://www.w3.org/2000/svg" viewBox="0 0 64 64"><defs><style>.cls-1{fill:#1d1f21;}</style></defs><title>Asset 70</title><g id="Layer_2" data-name="Layer 2"><g id="Layer_1-2" data-name="Layer 1"><path class="cls-1" d="M64,64H0V0H64ZM2.06,61.94H61.94V2.06H2.06Z"/><rect class="cls-1" x="4.13" y="4.13" width="2.06" height="2.06"/><rect class="cls-1" x="8.26" y="4.13" width="2.06" height="2.06"/><rect class="cls-1" x="12.39" y="4.13" width="2.06" height="2.06"/><rect class="cls-1" x="1.03" y="8.26" width="61.94" height="2.06"/><path class="cls-1" d="M59.87,47.48H4.13V12.39H59.87ZM6.19,45.42H57.81v-31H6.19Z"/><path class="cls-1" d="M32,43.35A13.42,13.42,0,1,1,45.42,29.94,13.43,13.43,0,0,1,32,43.35Zm0-24.77A11.35,11.35,0,1,0,43.35,29.94,11.37,11.37,0,0,0,32,18.58Z"/><path class="cls-1" d="M25.81,37.74V22.13l16.92,7.81Zm2.06-12.39v9.16l9.92-4.58Z"/><rect class="cls-1" x="4.13" y="49.55" width="26.84" height="2.06"/><rect class="cls-1" x="33.03" y="49.55" width="26.84" height="2.06"/><rect class="cls-1" x="4.13" y="53.68" width="26.84" height="2.06"/><rect class="cls-1" x="33.03" y="53.68" width="26.84" height="2.06"/><rect class="cls-1" x="4.13" y="57.81" width="26.84" height="2.06"/><rect class="cls-1" x="33.03" y="57.81" width="26.84" height="2.06"/><rect class="cls-1" x="47.48" y="28.9" width="2.06" height="2.06"/><rect class="cls-1" x="51.61" y="28.9" width="2.06" height="2.06"/><rect class="cls-1" x="14.45" y="28.9" width="2.06" height="2.06"/><rect class="cls-1" x="10.32" y="28.9" width="2.06" height="2.06"/></g></g></svg>