<svg id="Capa_1" enable-background="new 0 0 512 512" height="512" viewBox="0 0 512 512" width="512" xmlns="http://www.w3.org/2000/svg"><g><path d="m504.29 194.89c-4.75-2.64-10.57-2.51-15.2.36l-76.09 47.19v187.12l76.09 47.19c2.42 1.5 5.16 2.25 7.91 2.25 2.51 0 5.02-.63 7.29-1.89 4.76-2.65 7.71-7.67 7.71-13.11v-256c0-5.44-2.95-10.46-7.71-13.11z"/><path d="m274 303h-164c-8.271 0-15 6.729-15 15v36c0 8.271 6.729 15 15 15h164c8.271 0 15-6.729 15-15v-36c0-8.271-6.729-15-15-15z"/><path d="m338 185h-293c-24.81 0-45 20.19-45 45v212c0 24.81 20.19 45 45 45h293c24.81 0 45-20.19 45-45v-212c0-24.81-20.19-45-45-45zm-19 169c0 24.813-20.187 45-45 45h-164c-24.813 0-45-20.187-45-45v-36c0-24.813 20.187-45 45-45h164c24.813 0 45 20.187 45 45z"/><path d="m45 155h293c.54 0 1.07.01 1.6.02 7.25-12.69 11.4-27.39 11.4-43.02 0-47.97-39.03-87-87-87-29.91 0-56.33 15.17-72 38.22-15.67-23.05-42.09-38.22-72-38.22-47.97 0-87 39.03-87 87 0 15.63 4.15 30.32 11.39 43.01.2-.01.41-.01.61-.01zm219.01-58h.01c8.285 0 15 6.716 15 15s-6.715 15-15 15c-8.284 0-15.005-6.716-15.005-15s6.711-15 14.995-15zm-144 0h.01c8.285 0 15 6.716 15 15s-6.715 15-15 15c-8.284 0-15.005-6.716-15.005-15s6.711-15 14.995-15z"/></g></svg>